Coordinates
version=1
nRows=26
nColumns=22
inDegrees=yes

Units are S.I. units (second, meters, Newtons, ...)
If the header above contains a line with 'inDegrees', this indicates whether rotational values are in degrees (yes) or radians (no).

endheader
time	pelvis_tilt	pelvis_list	pelvis_rotation	pelvis_tx	pelvis_ty	pelvis_tz	hip_flexion_r	hip_adduction_r	hip_rotation_r	knee_angle_r	ankle_angle_r	subtalar_angle_r	hip_flexion_l	hip_adduction_l	hip_rotation_l	knee_angle_l	ankle_angle_l	subtalar_angle_l	lumbar_extension	lumbar_bending	lumbar_rotation
      3.56000000	     -0.03513374	      3.77055217	      9.75575191	     -0.05940982	      1.06805860	     -0.50176174	     24.97637193	     -1.61989410	    -17.00726717	    -32.63842089	     10.80528860	     -1.82694119	     -7.36712169	      2.82428082	     -9.48900411	    -11.20446148	     15.45439325	      6.49902562	     -6.98681424	     -5.05175000	    -10.63775964
      3.57000000	     -0.14323003	      3.63934302	      9.63206940	     -0.05187315	      1.06666627	     -0.50359799	     24.88164965	     -1.37989942	    -18.48534508	    -30.22421513	     10.82294574	     -1.79341688	     -7.47888520	      2.72456857	     -9.56349540	    -11.61360413	     15.76195710	      6.44798708	     -6.80653561	     -4.91052488	    -10.66174351
      3.58000000	     -0.16040149	      3.50522832	      9.52176626	     -0.04417465	      1.06534119	     -0.50534263	     24.65864358	     -1.09064433	    -19.99409551	    -27.80540864	     10.86447547	     -1.76206747	     -7.71696561	      2.59883177	     -9.62681886	    -11.97567435	     16.04364264	      6.45120879	     -6.72910180	     -4.74494882	    -10.68777629
      3.59000000	     -0.25065222	      3.34982035	      9.42742509	     -0.03644776	      1.06381988	     -0.50697155	     24.51487087	     -0.75216737	    -21.44607095	    -25.42537107	     10.88126438	     -1.70170913	     -7.84079725	      2.44911968	     -9.69085855	    -12.40598029	     16.35897994	      6.44479802	     -6.57482224	     -4.56974156	    -10.68783523
      3.60000000	     -0.34041190	      3.18089619	      9.34639024	     -0.02864200	      1.06223390	     -0.50849335	     24.36213840	     -0.36345089	    -22.83169864	    -23.08474159	     10.89090658	     -1.65227654	     -7.94716096	      2.27279459	     -9.75140842	    -12.87302374	     16.66950773	      6.45544808	     -6.42638172	     -4.37763595	    -10.68814242
      3.61000000	     -0.43906823	      2.99925481	      9.27770342	     -0.02072974	      1.06056851	     -0.50993126	     24.22124034	      0.05810301	    -24.16681128	    -20.82487172	     10.90268581	     -1.62860477	     -8.03167354	      2.07444415	     -9.80504418	    -13.37107150	     16.98425971	      6.47263181	     -6.26867805	     -4.17023079	    -10.68301583
      3.62000000	     -0.57308061	      2.80600613	      9.22130269	     -0.01271877	      1.05878785	     -0.51129636	     24.12956357	      0.49849823	    -25.43512471	    -18.67998149	     10.91605433	     -1.62980137	     -8.05621965	      1.85877802	     -9.85307875	    -13.92117545	     17.30515450	      6.46085076	     -6.07035152	     -3.95212036	    -10.67480656
      3.63000000	     -0.65789800	      2.61416605	      9.18492415	     -0.00453413	      1.05703947	     -0.51261656	     23.98920182	      0.94333890	    -26.66673543	    -16.67168197	     10.98640965	     -1.67614266	     -8.14391918	      1.62814624	     -9.86409083	    -14.46786836	     17.59783192	      6.49166330	     -5.92855821	     -3.71909733	    -10.69025939
      3.64000000	     -0.68680798	      2.43121494	      9.16228763	      0.00386627	      1.05533373	     -0.51391955	     23.79905286	      1.37813779	    -27.84295586	    -14.84235957	     11.13785527	     -1.78250387	     -8.31280541	      1.39300271	     -9.83915826	    -14.99861393	     17.84809156	      6.58451269	     -5.84177556	     -3.47171462	    -10.73948132
      3.65000000	     -0.77259553	      2.25300427	      9.14977253	      0.01240738	      1.05349139	     -0.51519379	     23.71715945	      1.76601950	    -28.97514598	    -13.28710233	     11.31268168	     -1.88356325	     -8.40927021	      1.16362937	     -9.79801540	    -15.57406788	     18.08666216	      6.61400962	     -5.68541538	     -3.23181027	    -10.77814416
      3.66000000	     -0.79830251	      2.09827978	      9.16357354	      0.02117766	      1.05171446	     -0.51649160	     23.60053374	      2.09409645	    -30.07105499	    -12.01698859	     11.56237654	     -2.04224928	     -8.59825621	      0.94347415	     -9.69850432	    -16.12491563	     18.27925038	      6.70264458	     -5.59129596	     -2.99046419	    -10.87000239
      3.67000000	     -0.77406256	      1.96978872	      9.19384583	      0.03013690	      1.05000016	     -0.51780707	     23.47017430	      2.34992126	    -31.10318182	    -11.07322559	     11.83579214	     -2.27505669	     -8.86126850	      0.73895481	     -9.54264364	    -16.66315810	     18.42625595	      6.86201774	     -5.55411393	     -2.75198843	    -10.98998844
      3.68000000	     -0.70668095	      1.86927733	      9.22154866	      0.03938104	      1.04835251	     -0.51912328	     23.32601530	      2.53323761	    -32.01040910	    -10.47542153	     12.12766235	     -2.63997621	     -9.20845142	      0.55442623	     -9.36086446	    -17.16710552	     18.49030661	      7.13439981	     -5.54394100	     -2.52048574	    -11.13296543
      3.69000000	     -0.65734873	      1.79504222	      9.28590851	      0.04875652	      1.04668696	     -0.52051720	     23.26124996	      2.59340019	    -32.84830481	    -10.28820634	     12.38167905	     -3.01507097	     -9.52071307	      0.39083064	     -9.11478770	    -17.72231925	     18.53220933	      7.35956951	     -5.51486870	     -2.29834190	    -11.31350312
      3.70000000	     -0.55134725	      1.73056503	      9.33257399	      0.05844643	      1.04515855	     -0.52186179	     23.15110015	      2.60939489	    -33.51857760	    -10.41632726	     12.54619865	     -3.68555169	     -9.92594906	      0.22209429	     -8.86944876	    -18.24666882	     18.46443523	      7.79521916	     -5.52465918	     -2.06464424	    -11.49801684
      3.71000000	     -0.44682136	      1.67447662	      9.42526992	      0.06830643	      1.04370960	     -0.52327899	     23.06734303	      2.53597453	    -34.09415346	    -10.86540054	     12.60727388	     -4.38202992	    -10.30476062	      0.05132869	     -8.52773134	    -18.82954311	     18.33990740	      8.23119796	     -5.52410898	     -1.81709829	    -11.72652403
      3.72000000	     -0.31786187	      1.59290879	      9.49602024	      0.07845258	      1.04239948	     -0.52461128	     22.97571977	      2.45510230	    -34.50678534	    -11.58571195	     12.53679654	     -5.30824666	    -10.70362690	     -0.16197433	     -8.20962812	    -19.43582892	     18.11427545	      8.84115957	     -5.52012626	     -1.52464793	    -11.96866206
      3.73000000	     -0.17848176	      1.47889096	      9.59916547	      0.08880536	      1.04128262	     -0.52590350	     22.87465072	      2.36392333	    -34.85086074	    -12.49692917	     12.28238633	     -6.27956270	    -11.06877651	     -0.42835230	     -7.81120417	    -20.11775305	     17.79251793	      9.53509229	     -5.50647605	     -1.18432463	    -12.24704951
      3.74000000	     -0.03283698	      1.30738118	      9.70214520	      0.09938898	      1.04039574	     -0.52706104	     22.75554136	      2.32293614	    -35.09242947	    -13.51447070	     11.89443573	     -7.31078691	    -11.38048575	     -0.77293145	     -7.37539492	    -20.89433586	     17.31986655	     10.37338284	     -5.46901036	     -0.78147667	    -12.51700236
      3.75000000	      0.11411620	      1.07433086	      9.79543074	      0.11016449	      1.03979775	     -0.52803834	     22.61672779	      2.35527423	    -35.21050734	    -14.56951442	     11.39149404	     -8.33260419	    -11.61569214	     -1.19904485	     -6.91496790	    -21.78471066	     16.69141340	     11.35765516	     -5.40483411	     -0.31451927	    -12.80068279
      3.76000000	      0.25479879	      0.77575108	      9.86548472	      0.12109346	      1.03953421	     -0.52880017	     22.45302042	      2.48790537	    -35.17917723	    -15.58825075	     10.86491016	     -9.27915418	    -11.74565216	     -1.70397639	     -6.42598501	    -22.81358412	     15.87281217	     12.48995225	     -5.30760018	      0.21444009	    -13.07498148
      3.77000000	      0.38553050	      0.42368259	      9.89586477	      0.13213413	      1.03963908	     -0.52930376	     22.26420504	      2.72517758	    -34.97545939	    -16.53533953	     10.39412850	    -10.09827052	    -11.75136512	     -2.27098835	     -5.92387732	    -23.99858781	     14.82687610	     13.76841795	     -5.17838801	      0.78426516	    -13.33299468
      3.78000000	      0.50793199	      0.06109284	      9.86520699	      0.14323558	      1.04013473	     -0.52951669	     22.03729530	      3.04179966	    -34.57290739	    -17.38292035	     10.00866608	    -10.75419984	    -11.63240696	     -2.84519394	     -5.40429736	    -25.34152132	     13.52220075	     15.18448266	     -5.03321666	      1.34134269	    -13.56254288
      3.79000000	      0.62299120	     -0.29440627	      9.78432526	      0.15438441	      1.04098798	     -0.52946964	     21.76377305	      3.41235471	    -34.05506486	    -18.12597779	      9.76978075	    -11.25089486	    -11.37835385	     -3.40852919	     -4.85971147	    -26.85662525	     11.94852357	     16.68362388	     -4.87487540	      1.86730685	    -13.77469948
      3.80000000	      0.74725497	     -0.56394477	      9.63208942	      0.16550388	      1.04219206	     -0.52916794	     21.41850259	      3.76225119	    -33.41701509	    -18.77238037	      9.61305583	    -11.60852842	    -11.02141636	     -3.86816825	     -4.28311007	    -28.52516042	     10.09314405	     18.24348579	     -4.74847616	      2.27823590	    -13.96152190
      3.81000000	      0.88422487	     -0.74834398	      9.41737810	      0.17663061	      1.04365297	     -0.52859814	     20.98623055	      4.09116702	    -32.72902532	    -19.30960107	      9.63180625	    -11.87834315	    -10.57267981	     -4.22308232	     -3.64642487	    -30.33267934	      7.98692696	     19.84485650	     -4.65284161	      2.56713128	    -14.10012822
